<?xml version="1.0" encoding="UTF-8"?>
<svg xmlns="http://www.w3.org/2000/svg" xmlns:xlink="http://www.w3.org/1999/xlink" viewBox="0 0 480 480" width="480px" height="480px">
<g id="surface53856481">
<path style=" stroke:none;fill-rule:nonzero;fill:rgb(100%,100%,100%);fill-opacity:1;" d="M 290.351562 240 C 290.140625 236.710938 290 233.390625 290 230 C 290 169.199219 318.601562 130 360 130 C 394.109375 130 423.300781 156.621094 430 200 L 450 200 L 450.011719 110 L 430 110 C 430 110 424.671875 125.058594 420 121.601562 C 401.011719 110.941406 382.769531 110.28125 359.761719 110.28125 C 301.761719 110.28125 250 162.601562 250 229.199219 C 250 232.839844 250.210938 236.429688 250.488281 240 L 229.5 240 C 229.789062 236.429688 230 232.839844 230 229.199219 C 230 162.601562 178.238281 110.28125 120.238281 110.28125 C 97.230469 110.28125 78.988281 110.929688 60 121.601562 C 55.328125 125.058594 50 110 50 110 L 29.988281 110 L 30 200 L 50 200 C 56.699219 156.621094 85.890625 130 120 130 C 161.398438 130 190 169.199219 190 230 C 190 233.390625 189.859375 236.710938 189.648438 240 L 0 240 L 0 260 L 10.089844 260 C 20.921875 260 29.859375 268.609375 30.078125 279.429688 C 30.460938 297.890625 32.238281 320.058594 40 330 C 52.691406 346.25 70 360 120 360 C 170.21875 360 219.199219 314.730469 230 260 L 250 260 C 260.800781 314.730469 309.78125 360 360 360 C 410 360 427.308594 346.25 440 330 C 447.761719 320.058594 449.539062 297.890625 449.921875 279.429688 C 450.140625 268.609375 459.089844 260 469.910156 260 L 480 260 L 480 240 Z M 114.769531 337.300781 C 98.71875 337.300781 73.21875 337.238281 70 320 C 68.910156 314.171875 69.089844 294.730469 69.429688 279.539062 C 69.679688 268.671875 78.550781 260 89.429688 260 L 190 260 C 182.058594 307.808594 150.148438 337.300781 114.769531 337.300781 Z M 410 320 C 406.78125 337.238281 381.28125 337.300781 365.230469 337.300781 C 329.859375 337.300781 297.941406 307.808594 290 260 L 390.570312 260 C 401.449219 260 410.320312 268.671875 410.570312 279.539062 C 410.910156 294.730469 411.089844 314.171875 410 320 Z M 410 320 "/>
</g>
</svg>
